<?xml version="1.0" standalone="no"?>
<!DOCTYPE svg PUBLIC "-//W3C//DTD SVG 20010904//EN"
 "http://www.w3.org/TR/2001/REC-SVG-20010904/DTD/svg10.dtd">
<svg version="1.0" xmlns="http://www.w3.org/2000/svg"
 width="337.000000pt" height="77.000000pt" viewBox="0 0 337.000000 77.000000"
 preserveAspectRatio="xMidYMid meet">

<g transform="translate(0.000000,77.000000) scale(0.100000,-0.100000)"
fill="#000000" stroke="none">
<path d="M223 752 c-112 -40 -177 -108 -210 -221 -20 -69 -12 -148 23 -216 15
-30 76 -103 153 -183 l127 -133 131 135 c161 167 178 197 178 321 0 101 -16
143 -81 215 -77 85 -215 120 -321 82z m193 -119 c61 -31 97 -91 102 -167 6
-91 -31 -156 -110 -197 -75 -38 -199 -14 -248 48 -23 30 -18 43 16 43 17 0 24
-5 24 -19 0 -11 5 -23 10 -26 6 -4 10 5 10 21 0 24 3 26 30 22 17 -3 30 -1 30
4 0 4 5 8 10 8 6 0 10 -20 10 -45 0 -33 4 -45 15 -45 11 0 15 12 15 45 0 43 1
45 30 45 28 0 30 -3 30 -35 0 -25 4 -33 14 -29 25 9 25 51 0 88 -23 34 -23 34
-2 28 20 -5 20 -3 -5 30 -30 39 -34 53 -12 44 21 -8 19 7 -3 27 -10 10 -29 40
-42 68 l-24 50 -24 -48 c-13 -26 -32 -56 -40 -66 -15 -17 -17 -17 -28 -2 -10
14 -14 11 -33 -20 -12 -20 -19 -41 -16 -45 3 -5 -2 -21 -11 -35 -10 -15 -12
-25 -5 -25 8 0 7 -6 -1 -20 -17 -27 -24 -25 -37 11 -46 132 65 276 205 266 28
-2 68 -12 90 -24z m-151 -143 c-3 -5 -10 -10 -16 -10 -5 0 -9 5 -9 10 0 6 7
10 16 10 8 0 12 -4 9 -10z"/>
<path d="M1110 445 l0 -215 40 0 40 0 0 215 0 215 -40 0 -40 0 0 -215z"/>
<path d="M1260 635 c-10 -12 -10 -21 -2 -40 13 -29 43 -33 66 -9 19 18 19 20
6 45 -13 23 -52 25 -70 4z"/>
<path d="M830 435 l0 -205 115 0 115 0 0 35 0 35 -75 0 -75 0 0 55 0 55 65 0
65 0 0 30 0 30 -65 0 -65 0 0 50 0 50 75 0 75 0 0 35 0 35 -115 0 -115 0 0
-205z"/>
<path d="M2090 605 l0 -35 50 0 50 0 0 -170 0 -170 40 0 40 0 0 170 0 170 50
0 50 0 0 35 0 35 -140 0 -140 0 0 -35z"/>
<path d="M1498 524 c-16 -8 -28 -10 -28 -4 0 5 -16 10 -35 10 l-35 0 0 -150 0
-150 35 0 35 0 0 115 c0 99 2 116 18 124 11 6 24 6 35 0 15 -9 17 -26 17 -124
l0 -115 40 0 39 0 3 118 3 117 26 3 c22 3 27 -2 33 -29 3 -17 6 -71 6 -120 l0
-89 35 0 35 0 0 123 c0 138 -9 167 -57 180 -26 8 -39 5 -67 -11 -20 -12 -36
-18 -36 -13 0 9 -45 31 -63 31 -7 -1 -24 -8 -39 -16z"/>
<path d="M2496 523 c-13 -13 -20 -15 -23 -5 -3 6 -20 12 -39 12 l-34 0 0 -150
0 -150 40 0 40 0 0 109 c0 115 2 121 51 121 16 0 19 7 19 40 0 32 -4 40 -18
40 -10 0 -26 -8 -36 -17z"/>
<path d="M2644 526 c-47 -21 -67 -72 -62 -163 3 -70 6 -77 36 -104 27 -24 41
-29 85 -29 77 0 121 37 82 70 -12 10 -18 10 -29 1 -24 -20 -79 -9 -93 18 -6
14 -10 29 -7 33 3 4 39 8 80 8 l74 0 0 40 c0 108 -75 165 -166 126z m86 -77
c17 -31 11 -39 -30 -39 -36 0 -40 3 -40 25 0 43 49 54 70 14z"/>
<path d="M2934 534 c-93 -20 -113 -233 -29 -288 31 -20 107 -20 145 -1 34 17
36 23 17 49 -11 15 -17 16 -35 7 -33 -18 -80 -14 -92 8 -24 45 -15 51 70 51
90 0 90 0 70 84 -15 69 -75 105 -146 90z m57 -64 c11 -6 19 -21 19 -35 0 -22
-4 -25 -40 -25 -33 0 -40 3 -40 19 0 18 24 51 36 51 3 0 14 -5 25 -10z"/>
<path d="M3183 525 c-54 -23 -70 -81 -34 -126 10 -14 42 -35 70 -49 53 -24 62
-39 36 -60 -17 -14 -51 -5 -59 15 -3 9 -19 15 -41 15 -40 0 -40 -1 -20 -40 20
-39 43 -50 105 -50 63 0 100 30 100 83 0 45 -18 66 -81 96 -56 27 -67 46 -37
64 13 9 21 7 36 -6 20 -19 82 -23 82 -6 0 36 -56 79 -102 79 -13 -1 -37 -7
-55 -15z"/>
<path d="M1260 380 l0 -150 35 0 35 0 0 150 0 150 -35 0 -35 0 0 -150z"/>
<path d="M1820 418 c0 -142 15 -181 72 -186 20 -2 46 2 58 8 13 7 20 7 20 0 0
-5 18 -10 40 -10 l40 0 0 150 0 150 -40 0 -39 0 -3 -111 c-2 -90 -6 -114 -19
-122 -9 -6 -24 -7 -33 -4 -13 5 -16 24 -16 122 l0 115 -40 0 -40 0 0 -112z"/>
<path d="M1003 100 c0 -36 2 -48 4 -27 6 50 33 52 33 2 0 -19 5 -35 10 -35 13
0 13 46 0 70 -6 11 -17 17 -24 14 -9 -4 -16 3 -19 18 -2 13 -4 -6 -4 -42z"/>
<path d="M1243 100 c0 -36 2 -50 4 -32 2 17 2 47 0 65 -2 17 -4 3 -4 -33z"/>
<path d="M1710 100 c0 -33 4 -60 10 -60 6 0 10 27 10 60 0 33 -4 60 -10 60 -6
0 -10 -27 -10 -60z"/>
<path d="M2470 150 c0 -5 5 -10 11 -10 5 0 7 5 4 10 -3 6 -8 10 -11 10 -2 0
-4 -4 -4 -10z"/>
<path d="M2685 150 c-3 -5 -1 -10 4 -10 6 0 11 5 11 10 0 6 -2 10 -4 10 -3 0
-8 -4 -11 -10z"/>
<path d="M843 133 c-4 -11 3 -24 22 -38 32 -26 27 -52 -7 -34 -16 9 -19 8 -16
-3 7 -20 43 -21 59 -2 12 14 10 19 -14 40 -27 23 -35 44 -18 44 6 0 13 -4 16
-10 10 -16 25 -12 19 5 -8 20 -53 19 -61 -2z"/>
<path d="M1313 143 c13 -3 17 -15 17 -54 0 -27 5 -49 10 -49 6 0 10 22 10 49
0 39 4 51 18 54 9 3 -3 5 -28 5 -25 0 -37 -2 -27 -5z"/>
<path d="M1620 95 c0 -30 5 -55 10 -55 6 0 10 9 10 19 0 12 9 21 25 25 52 13
39 66 -16 66 -28 0 -29 -1 -29 -55z m58 22 c2 -12 -3 -17 -17 -17 -15 0 -21 6
-21 21 0 25 33 22 38 -4z"/>
<path d="M1908 133 c-6 -26 5 -86 17 -90 13 -4 10 86 -3 99 -6 6 -11 3 -14 -9z"/>
<path d="M2190 95 c0 -58 19 -78 21 -22 l1 32 10 -32 c6 -18 14 -33 18 -33 4
0 12 15 18 33 l10 32 1 -32 c2 -56 21 -36 21 22 0 41 -4 55 -14 55 -8 0 -17
-13 -21 -30 -10 -43 -23 -46 -31 -5 -11 58 -34 45 -34 -20z"/>
<path d="M2508 133 c-6 -26 5 -86 17 -90 13 -4 10 86 -3 99 -6 6 -11 3 -14 -9z"/>
<path d="M2920 127 c0 -16 8 -28 25 -35 14 -6 25 -16 25 -21 0 -18 -21 -23
-37 -9 -14 11 -15 11 -11 -2 2 -8 16 -15 29 -15 35 0 38 39 4 61 -17 11 -23
20 -16 27 7 7 16 6 27 -4 15 -12 17 -12 12 1 -2 8 -17 16 -31 18 -23 3 -27 -1
-27 -21z"/>
<path d="M3148 138 c-3 -7 -3 -32 0 -55 3 -31 9 -43 20 -43 12 0 13 3 4 12
-14 14 -16 55 -3 60 5 2 4 11 -4 21 -9 13 -14 14 -17 5z"/>
<path d="M938 119 c-19 -11 -23 -45 -9 -67 11 -17 43 -12 49 8 4 12 3 13 -10
3 -18 -16 -28 -7 -28 24 0 21 3 23 22 17 20 -6 21 -5 9 10 -7 9 -14 16 -15 16
0 0 -9 -5 -18 -11z"/>
<path d="M1085 116 c-21 -15 -17 -55 7 -70 25 -15 53 14 44 47 -7 30 -28 40
-51 23z m33 -31 c-2 -14 -7 -26 -13 -26 -5 0 -11 12 -13 26 -2 18 1 25 13 25
12 0 15 -7 13 -25z"/>
<path d="M1165 116 c-21 -15 -17 -55 7 -70 25 -15 53 14 44 47 -7 30 -28 40
-51 23z m33 -31 c-2 -14 -7 -26 -13 -26 -5 0 -11 12 -13 26 -2 18 1 25 13 25
12 0 15 -7 13 -25z"/>
<path d="M1403 123 c-8 -3 -12 -21 -12 -46 2 -34 3 -37 6 -12 3 17 10 36 15
43 13 15 8 21 -9 15z"/>
<path d="M1445 114 c-18 -18 -19 -46 -3 -62 14 -14 48 -16 48 -3 0 5 -7 8 -16
7 -9 0 -19 5 -21 12 -3 7 4 12 16 12 14 0 21 6 21 19 0 25 -26 34 -45 15z m35
-14 c0 -5 -7 -10 -15 -10 -8 0 -15 5 -15 10 0 6 7 10 15 10 8 0 15 -4 15 -10z"/>
<path d="M1521 116 c-18 -22 -10 -70 13 -74 10 -2 23 1 30 8 8 9 6 11 -8 8
-10 -1 -21 3 -23 10 -3 7 4 12 16 12 23 0 28 19 9 38 -16 16 -23 15 -37 -2z
m29 -16 c0 -5 -4 -10 -10 -10 -5 0 -10 5 -10 10 0 6 5 10 10 10 6 0 10 -4 10
-10z"/>
<path d="M1759 114 c-12 -15 -11 -16 9 -10 12 4 22 3 22 -2 0 -5 -9 -12 -21
-15 -31 -8 -21 -41 14 -45 25 -3 27 0 27 30 0 31 -14 58 -31 58 -4 0 -13 -7
-20 -16z m31 -43 c0 -6 -4 -13 -10 -16 -5 -3 -10 1 -10 9 0 9 5 16 10 16 6 0
10 -4 10 -9z"/>
<path d="M1848 122 c-14 -3 -18 -13 -17 -45 l2 -42 6 34 c8 48 31 53 31 7 0
-20 5 -36 10 -36 14 0 12 66 -2 77 -7 5 -21 8 -30 5z"/>
<path d="M2081 117 c-19 -19 -13 -68 9 -74 11 -3 20 -10 20 -15 0 -6 -7 -8
-15 -4 -8 3 -15 1 -15 -5 0 -6 10 -9 23 -7 19 3 22 10 25 54 3 44 0 52 -17 57
-10 2 -24 0 -30 -6z m29 -38 c0 -17 -4 -28 -10 -24 -5 3 -10 17 -10 31 0 13 5
24 10 24 6 0 10 -14 10 -31z"/>
<path d="M2320 115 c-6 -7 -10 -26 -8 -42 2 -22 8 -28 28 -28 21 0 26 5 28 32
4 38 -27 63 -48 38z m34 -22 c9 -22 -10 -41 -25 -26 -13 13 -5 43 10 43 5 0
12 -8 15 -17z"/>
<path d="M2408 122 c-14 -2 -18 -14 -18 -43 0 -21 5 -39 10 -39 6 0 10 16 10
35 0 19 5 35 10 35 6 0 10 -16 10 -35 0 -19 5 -35 10 -35 14 0 12 66 -2 77 -7
5 -21 8 -30 5z"/>
<path d="M2567 118 c-32 -18 -16 -83 19 -76 14 2 20 13 22 39 3 40 -12 54 -41
37z m28 -36 c0 -31 -19 -28 -23 4 -3 18 0 25 10 22 7 -3 13 -14 13 -26z"/>
<path d="M2648 122 c-14 -2 -18 -13 -18 -43 0 -21 5 -39 10 -39 6 0 10 13 10
28 0 15 5 33 12 40 14 14 9 20 -14 14z"/>
<path d="M2738 122 c-14 -2 -18 -13 -18 -43 0 -21 5 -39 10 -39 6 0 10 16 10
35 0 19 5 35 10 35 6 0 10 -16 10 -35 0 -19 5 -35 10 -35 15 0 12 77 -2 82 -7
2 -21 3 -30 0z"/>
<path d="M2813 123 c-7 -3 -13 -20 -13 -40 0 -26 5 -36 20 -40 11 -3 20 -10
20 -15 0 -6 -7 -8 -15 -4 -8 3 -15 1 -15 -5 0 -6 10 -9 23 -7 19 3 22 10 25
54 2 43 0 52 -15 56 -10 3 -24 3 -30 1z m27 -45 c0 -30 -1 -31 -16 -16 -9 9
-14 24 -11 32 11 27 27 17 27 -16z"/>
<path d="M3083 123 c-20 -7 -15 -29 10 -46 12 -8 19 -18 15 -22 -4 -4 -15 -2
-24 6 -15 12 -17 12 -12 -1 6 -21 44 -25 51 -5 4 9 -1 20 -13 27 -26 16 -26
31 0 23 11 -3 20 -4 20 -1 0 10 -35 23 -47 19z"/>
<path d="M3201 116 c-18 -22 -10 -70 13 -74 10 -2 23 1 30 8 8 9 6 11 -8 8
-10 -1 -21 3 -23 10 -3 7 4 12 16 12 23 0 28 19 9 38 -16 16 -23 15 -37 -2z
m29 -16 c0 -5 -4 -10 -10 -10 -5 0 -10 5 -10 10 0 6 5 10 10 10 6 0 10 -4 10
-10z"/>
<path d="M3288 122 c-14 -3 -18 -13 -17 -45 l2 -42 6 34 c8 48 31 53 31 7 0
-20 5 -36 10 -36 6 0 10 16 10 35 0 19 5 35 10 35 6 0 10 -16 10 -35 0 -19 5
-35 10 -35 14 0 12 67 -2 76 -13 9 -44 11 -70 6z"/>
<path d="M1963 80 c0 -25 2 -35 4 -22 2 12 2 32 0 45 -2 12 -4 2 -4 -23z"/>
<path d="M1990 80 c0 -22 5 -40 10 -40 6 0 10 16 10 35 0 19 5 35 10 35 6 0
10 -16 10 -35 0 -19 5 -35 10 -35 6 0 10 18 10 40 0 38 -2 40 -30 40 -28 0
-30 -2 -30 -40z"/>
<path d="M2470 80 c0 -22 5 -40 10 -40 6 0 10 18 10 40 0 22 -4 40 -10 40 -5
0 -10 -18 -10 -40z"/>
<path d="M2680 80 c0 -22 5 -40 10 -40 6 0 10 18 10 40 0 22 -4 40 -10 40 -5
0 -10 -18 -10 -40z"/>
<path d="M3000 112 c0 -4 4 -23 10 -41 7 -24 6 -39 -1 -48 -8 -9 -8 -13 -1
-13 14 0 20 10 36 65 15 47 7 61 -12 23 l-11 -23 0 23 c-1 19 -21 34 -21 14z"/>
</g>
</svg>
